<mxfile host="Electron" modified="2023-12-27T20:48:48.181Z" agent="Mozilla/5.0 (Windows NT 10.0; Win64; x64) AppleWebKit/537.36 (KHTML, like Gecko) draw.io/22.1.2 Chrome/114.0.5735.289 Electron/25.9.4 Safari/537.36" etag="lu57EWvbZOEnoNfn4-AQ" version="22.1.2" type="device">
  <diagram name="Page-1" id="mzUWZIKD-KCaq98Z_Yji">
    <mxGraphModel dx="864" dy="516" grid="1" gridSize="10" guides="1" tooltips="1" connect="1" arrows="1" fold="1" page="1" pageScale="1" pageWidth="827" pageHeight="1169" math="0" shadow="0">
      <root>
        <mxCell id="0" />
        <mxCell id="1" parent="0" />
        <mxCell id="nHuGMryrJTPxpq6lVXzG-2" value="&lt;p style=&quot;line-height: 120%;&quot;&gt;&lt;br&gt;&lt;/p&gt;" style="rounded=1;whiteSpace=wrap;html=1;fillColor=none;align=center;" vertex="1" parent="1">
          <mxGeometry x="240" y="160" width="340" height="450" as="geometry" />
        </mxCell>
        <mxCell id="nHuGMryrJTPxpq6lVXzG-3" value="Client" style="shape=umlActor;verticalLabelPosition=bottom;verticalAlign=top;html=1;outlineConnect=0;" vertex="1" parent="1">
          <mxGeometry x="90" y="300" width="30" height="60" as="geometry" />
        </mxCell>
        <mxCell id="nHuGMryrJTPxpq6lVXzG-4" value="consultation" style="ellipse;whiteSpace=wrap;html=1;" vertex="1" parent="1">
          <mxGeometry x="280" y="270" width="96" height="60" as="geometry" />
        </mxCell>
        <mxCell id="nHuGMryrJTPxpq6lVXzG-5" value="retrait" style="ellipse;whiteSpace=wrap;html=1;" vertex="1" parent="1">
          <mxGeometry x="250" y="450" width="98" height="50" as="geometry" />
        </mxCell>
        <mxCell id="nHuGMryrJTPxpq6lVXzG-6" value="authentification" style="ellipse;whiteSpace=wrap;html=1;" vertex="1" parent="1">
          <mxGeometry x="376" y="360" width="90" height="60" as="geometry" />
        </mxCell>
        <mxCell id="nHuGMryrJTPxpq6lVXzG-7" value="ticket" style="ellipse;whiteSpace=wrap;html=1;" vertex="1" parent="1">
          <mxGeometry x="369" y="480" width="90" height="60" as="geometry" />
        </mxCell>
        <mxCell id="nHuGMryrJTPxpq6lVXzG-8" value="Bank" style="shape=umlActor;verticalLabelPosition=bottom;verticalAlign=top;html=1;outlineConnect=0;" vertex="1" parent="1">
          <mxGeometry x="650" y="250" width="30" height="60" as="geometry" />
        </mxCell>
        <mxCell id="nHuGMryrJTPxpq6lVXzG-9" value="DAB" style="rounded=1;whiteSpace=wrap;html=1;fillColor=none;" vertex="1" parent="1">
          <mxGeometry x="280" y="160" width="250" height="30" as="geometry" />
        </mxCell>
        <mxCell id="nHuGMryrJTPxpq6lVXzG-16" value="" style="endArrow=classic;html=1;rounded=0;exitX=1;exitY=0.3333333333333333;exitDx=0;exitDy=0;exitPerimeter=0;entryX=0;entryY=0.5;entryDx=0;entryDy=0;" edge="1" parent="1" source="nHuGMryrJTPxpq6lVXzG-3" target="nHuGMryrJTPxpq6lVXzG-4">
          <mxGeometry width="50" height="50" relative="1" as="geometry">
            <mxPoint x="390" y="370" as="sourcePoint" />
            <mxPoint x="440" y="320" as="targetPoint" />
          </mxGeometry>
        </mxCell>
        <mxCell id="nHuGMryrJTPxpq6lVXzG-18" value="" style="endArrow=classic;html=1;rounded=0;exitX=1;exitY=0.3333333333333333;exitDx=0;exitDy=0;exitPerimeter=0;" edge="1" parent="1" source="nHuGMryrJTPxpq6lVXzG-3" target="nHuGMryrJTPxpq6lVXzG-5">
          <mxGeometry width="50" height="50" relative="1" as="geometry">
            <mxPoint x="130" y="330" as="sourcePoint" />
            <mxPoint x="304" y="260" as="targetPoint" />
          </mxGeometry>
        </mxCell>
        <mxCell id="nHuGMryrJTPxpq6lVXzG-19" value="" style="endArrow=classic;html=1;rounded=0;exitX=0.5;exitY=1;exitDx=0;exitDy=0;dashed=1;" edge="1" parent="1" source="nHuGMryrJTPxpq6lVXzG-4" target="nHuGMryrJTPxpq6lVXzG-6">
          <mxGeometry width="50" height="50" relative="1" as="geometry">
            <mxPoint x="140" y="340" as="sourcePoint" />
            <mxPoint x="314" y="270" as="targetPoint" />
            <Array as="points" />
          </mxGeometry>
        </mxCell>
        <mxCell id="nHuGMryrJTPxpq6lVXzG-20" value="" style="endArrow=classic;html=1;rounded=0;entryX=1;entryY=1;entryDx=0;entryDy=0;dashed=1;" edge="1" parent="1" source="nHuGMryrJTPxpq6lVXzG-7" target="nHuGMryrJTPxpq6lVXzG-5">
          <mxGeometry width="50" height="50" relative="1" as="geometry">
            <mxPoint x="150" y="350" as="sourcePoint" />
            <mxPoint x="324" y="280" as="targetPoint" />
          </mxGeometry>
        </mxCell>
        <mxCell id="nHuGMryrJTPxpq6lVXzG-21" value="rapide" style="ellipse;whiteSpace=wrap;html=1;aspect=fixed;" vertex="1" parent="1">
          <mxGeometry x="364" y="190" width="50" height="50" as="geometry" />
        </mxCell>
        <mxCell id="nHuGMryrJTPxpq6lVXzG-22" value="normal" style="ellipse;whiteSpace=wrap;html=1;aspect=fixed;" vertex="1" parent="1">
          <mxGeometry x="430" y="190" width="50" height="50" as="geometry" />
        </mxCell>
        <mxCell id="nHuGMryrJTPxpq6lVXzG-23" value="" style="endArrow=classic;html=1;rounded=0;exitX=0.32;exitY=0.98;exitDx=0;exitDy=0;dashed=1;exitPerimeter=0;" edge="1" parent="1" source="nHuGMryrJTPxpq6lVXzG-21" target="nHuGMryrJTPxpq6lVXzG-4">
          <mxGeometry width="50" height="50" relative="1" as="geometry">
            <mxPoint x="386" y="310" as="sourcePoint" />
            <mxPoint x="461" y="323" as="targetPoint" />
          </mxGeometry>
        </mxCell>
        <mxCell id="nHuGMryrJTPxpq6lVXzG-25" value="" style="endArrow=classic;html=1;rounded=0;exitX=0;exitY=1;exitDx=0;exitDy=0;dashed=1;" edge="1" parent="1" source="nHuGMryrJTPxpq6lVXzG-22">
          <mxGeometry width="50" height="50" relative="1" as="geometry">
            <mxPoint x="394" y="259" as="sourcePoint" />
            <mxPoint x="365" y="285" as="targetPoint" />
          </mxGeometry>
        </mxCell>
        <mxCell id="nHuGMryrJTPxpq6lVXzG-28" value="" style="endArrow=classic;html=1;rounded=0;entryX=1;entryY=0.5;entryDx=0;entryDy=0;" edge="1" parent="1" source="nHuGMryrJTPxpq6lVXzG-8" target="nHuGMryrJTPxpq6lVXzG-30">
          <mxGeometry width="50" height="50" relative="1" as="geometry">
            <mxPoint x="414" y="279" as="sourcePoint" />
            <mxPoint x="380" y="300" as="targetPoint" />
          </mxGeometry>
        </mxCell>
        <mxCell id="nHuGMryrJTPxpq6lVXzG-30" value="verification des comptes" style="ellipse;whiteSpace=wrap;html=1;aspect=fixed;" vertex="1" parent="1">
          <mxGeometry x="459" y="260" width="80" height="80" as="geometry" />
        </mxCell>
      </root>
    </mxGraphModel>
  </diagram>
</mxfile>
